<svg xmlns="http://www.w3.org/2000/svg" viewBox="0 0 218 65.3"><defs><style>.cls-2{isolation:isolate}.cls-3{fill:#fff}</style></defs><g id="Layer_2" data-name="Layer 2"><g id="Layer_1-2" data-name="Layer 1"><rect id="Base" width="218" height="65.3" rx="15" style="fill:#f36e37"/><g id="Pay_Now_with_Cheddar_Up" class="cls-2" data-name="Pay Now with Cheddar Up"><g class="cls-2"><path d="M82.6 14a6 6 0 0 1 1.8 4.8 5.7 5.7 0 0 1-1.9 4.7c-1.2 1-3.2 1.5-5.7 1.5h-2.4v5h-3.9V12.3h6.2q4 0 5.9 1.6Zm-2.9 6.9a3.4 3.4 0 0 0 .7-2.3 2.4 2.4 0 0 0-.9-2.2 5 5 0 0 0-2.8-.6h-2.3v5.9h2.7a3.5 3.5 0 0 0 2.6-.8ZM98.3 30h-3.5v-1.7a4.4 4.4 0 0 1-3.6 1.8 5.3 5.3 0 0 1-3.6-1.2 4.1 4.1 0 0 1-1.5-3.3 3.5 3.5 0 0 1 1.5-3.1 7.2 7.2 0 0 1 4.1-1h2.8c0-1.5-.7-2.2-2.2-2.2a6 6 0 0 0-2.1.4 6.5 6.5 0 0 0-1.8 1l-1.7-2.5a10 10 0 0 1 6-1.9 6.3 6.3 0 0 1 4 1.2 4.7 4.7 0 0 1 1.5 4Zm-3.8-5.2V24h-2.3c-1.5 0-2.3.5-2.3 1.4a1.3 1.3 0 0 0 .5 1.1 2.6 2.6 0 0 0 1.6.4 2.8 2.8 0 0 0 1.8-.6 2 2 0 0 0 .7-1.6ZM103.9 35.2a5.4 5.4 0 0 1-3.8-1.6l1.7-2.8a2.8 2.8 0 0 0 2 1 1.1 1.1 0 0 0 1-.5 1.8 1.8 0 0 0 .3-1.1q0-.6-5.2-13.7h4l3.3 8.3 3.3-8.3h4l-6.3 15.8a4.5 4.5 0 0 1-1.7 2.2 4.6 4.6 0 0 1-2.6.7ZM135.5 12.4h3.9V30h-4L127.3 19v11h-4V12.4h3.7l8.6 11.3ZM156.8 23.2a6.6 6.6 0 0 1-2 5 7.5 7.5 0 0 1-10.2 0 6.6 6.6 0 0 1-2-5 6.7 6.7 0 0 1 2-5 7.5 7.5 0 0 1 10.2 0 6.7 6.7 0 0 1 2 5Zm-10.5 0a3.8 3.8 0 0 0 1 2.7 3.3 3.3 0 0 0 4.7 0 3.9 3.9 0 0 0 1-2.7 4 4 0 0 0-1-2.7 3.3 3.3 0 0 0-4.7 0 3.9 3.9 0 0 0-1 2.7ZM166.3 30h-3.9l-4.6-13.5h4l2.5 8 2.7-8h3.6l2.7 8 2.6-8h3.9l-4.6 13.4h-3.9l-2.5-7.3Z" class="cls-3"/></g><g class="cls-2"><path d="M73.7 50h-2.4l-2.7-8.2h2.3l1.6 5 1.6-5h2.1l1.6 5 1.6-5h2.3L79 50h-2.4l-1.4-4.4ZM83.2 40.8a1.4 1.4 0 0 1 0-1.9 1.3 1.3 0 0 1 1-.3 1.3 1.3 0 1 1 0 2.6 1.3 1.3 0 0 1-1-.4Zm2 9.1H83v-8h2.3ZM90 43.5V47a1 1 0 0 0 .3.7.8.8 0 0 0 .6.3 1.3 1.3 0 0 0 1-.6l.9 1.6a3.3 3.3 0 0 1-2.3 1 2.7 2.7 0 0 1-2.7-2.9v-3.7h-1v-1.7h1v-2.4H90v2.4h2v1.7ZM96.2 45.6v4.3H94V38.8h2.3v4a3.1 3.1 0 0 1 2.2-1 2.9 2.9 0 0 1 2.2.9 3.3 3.3 0 0 1 .9 2.4V50h-2.3v-4.5c0-1.2-.5-1.9-1.4-1.9a1.7 1.7 0 0 0-1.2.5 2 2 0 0 0-.5 1.5ZM112.5 47.8a3.5 3.5 0 0 0 2.9-1.3l1.5 1.5a5.7 5.7 0 0 1-8.2.5 5.1 5.1 0 0 1-1.6-3.9 5.2 5.2 0 0 1 1.6-3.9 5.4 5.4 0 0 1 4-1.5 5.5 5.5 0 0 1 4.2 2l-1.4 1.6a3.4 3.4 0 0 0-2.8-1.3 3.2 3.2 0 0 0-2.3.8 3 3 0 0 0-.9 2.3 3.2 3.2 0 0 0 .9 2.4 3 3 0 0 0 2.1.8ZM120.7 45.6v4.3h-2.2V38.8h2.2v4a3.1 3.1 0 0 1 2.3-1 2.9 2.9 0 0 1 2.2.9 3.3 3.3 0 0 1 .8 2.3v4.9h-2.3v-4.4c0-1.2-.4-1.9-1.3-1.9a1.7 1.7 0 0 0-1.2.5 1.9 1.9 0 0 0-.5 1.5ZM135 48.7A4.5 4.5 0 0 1 132 50a4.2 4.2 0 0 1-3-1.1 4 4 0 0 1-1.2-3 4 4 0 0 1 1.2-3 4.1 4.1 0 0 1 2.9-1.1 4.2 4.2 0 0 1 2.8 1 3.5 3.5 0 0 1 1.2 2.7v1.2h-6a1.6 1.6 0 0 0 .8 1.1 2.2 2.2 0 0 0 1.3.4 2.6 2.6 0 0 0 2-.8ZM133 44a1.7 1.7 0 0 0-1.1-.4 2 2 0 0 0-1.3.4 1.6 1.6 0 0 0-.6 1.1h3.5a1.6 1.6 0 0 0-.5-1.1ZM140.6 50a3.4 3.4 0 0 1-2.6-1.2 4.3 4.3 0 0 1-1.1-3 4 4 0 0 1 1-3 3.4 3.4 0 0 1 2.6-1 3 3 0 0 1 2.4 1v-4h2.3v11.1H143v-1a3 3 0 0 1-2.4 1.1Zm-1.4-4.1a2.2 2.2 0 0 0 .5 1.6 1.8 1.8 0 0 0 1.4.6 1.7 1.7 0 0 0 1.3-.6 2.3 2.3 0 0 0 .6-1.6 2.5 2.5 0 0 0-.6-1.7 1.7 1.7 0 0 0-1.3-.6 1.7 1.7 0 0 0-1.4.6 2.4 2.4 0 0 0-.5 1.7ZM150.6 50a3.4 3.4 0 0 1-2.6-1.2 4.3 4.3 0 0 1-1.1-3 4 4 0 0 1 1-3 3.4 3.4 0 0 1 2.6-1 3 3 0 0 1 2.4 1v-4h2.3v11.1h-2.3v-1a3 3 0 0 1-2.3 1.1Zm-1.4-4.1a2.2 2.2 0 0 0 .5 1.6 1.8 1.8 0 0 0 1.4.6 1.7 1.7 0 0 0 1.3-.6 2.3 2.3 0 0 0 .6-1.6 2.5 2.5 0 0 0-.6-1.7 1.7 1.7 0 0 0-1.3-.6 1.7 1.7 0 0 0-1.4.6 2.4 2.4 0 0 0-.5 1.7ZM164.2 50H162v-1a2.6 2.6 0 0 1-2.2 1 3.2 3.2 0 0 1-2.1-.7 2.5 2.5 0 0 1-1-2 2 2 0 0 1 1-1.9 4.3 4.3 0 0 1 2.4-.6h1.7c0-.9-.4-1.3-1.3-1.3a3.9 3.9 0 0 0-1.3.2 4.2 4.2 0 0 0-1 .6l-1-1.5a6 6 0 0 1 3.5-1.1 3.8 3.8 0 0 1 2.4.7 2.8 2.8 0 0 1 1 2.4Zm-2.3-3.2v-.4h-1.4q-1.4 0-1.4.9a.8.8 0 0 0 .4.7 1.6 1.6 0 0 0 .9.2 1.6 1.6 0 0 0 1-.4 1.2 1.2 0 0 0 .5-1ZM170.5 43.8a1.7 1.7 0 0 0-1.5.7 3.2 3.2 0 0 0-.5 2v3.4h-2.3v-8h2.3v1a3.7 3.7 0 0 1 1-.8 3 3 0 0 1 1.4-.4v2.1ZM179.4 47.2a2 2 0 0 0 3.1 0 3.2 3.2 0 0 0 .6-2v-5.8h2.3v5.9a4.7 4.7 0 0 1-1.2 3.5 4.9 4.9 0 0 1-6.5 0 4.6 4.6 0 0 1-1.3-3.5v-5.9h2.4v5.8a3 3 0 0 0 .6 2ZM192.3 41.7a3.4 3.4 0 0 1 2.5 1.2 4.2 4.2 0 0 1 1.1 3 4.3 4.3 0 0 1-1 3 3.4 3.4 0 0 1-2.6 1.2 2.8 2.8 0 0 1-2.4-1.2v4h-2.3V42h2.3v1a3.3 3.3 0 0 1 2.4-1.2Zm-2.5 4.2a2.3 2.3 0 0 0 .6 1.6 1.7 1.7 0 0 0 1.3.6 1.8 1.8 0 0 0 1.4-.6 2.2 2.2 0 0 0 .6-1.6 2.4 2.4 0 0 0-.6-1.6 1.7 1.7 0 0 0-1.4-.7 1.7 1.7 0 0 0-1.3.7 2.5 2.5 0 0 0-.6 1.6Z" class="cls-3"/></g></g><path id="Path_4732" d="m21.9 26 9.6 5.6a4.9 4.9 0 0 1 2.5 4.3V47a1.9 1.9 0 0 1-1.9 1.9 1.8 1.8 0 0 1-.9-.3l-5.9-3.4a1.1 1.1 0 0 0-1.2 0l-5.9 3.4a1.9 1.9 0 0 1-2.5-.7 1.9 1.9 0 0 1-.3-1 1.8 1.8 0 0 1 1-1.5l11-6.5a1.9 1.9 0 0 0-1.8-3.2l-6 3.5a.3.3 0 0 1-.3 0 .3.3 0 0 1-.1-.3V27.6a1.9 1.9 0 0 1 2.7-1.6ZM52 15l5.6 3.2a1.8 1.8 0 0 1 .9 1.6v6.5a1.9 1.9 0 1 1-3.7 0v-4.7a1.1 1.1 0 0 0-.6-1l-4-2.4A1.9 1.9 0 0 1 52 15Zm-4.1 4.6-9.6-5.5a4.9 4.9 0 0 0-5 0l-9.6 5.5a1.9 1.9 0 0 0-.6 2.5 1.8 1.8 0 0 0 .6.7l9.6 5.6a4.9 4.9 0 0 0 5 0l9.6-5.6a1.9 1.9 0 0 0 .7-2.5 1.9 1.9 0 0 0-.7-.7ZM37.7 36V47a1.9 1.9 0 0 0 1.8 1.9 2 2 0 0 0 1-.3L50 43a4.8 4.8 0 0 0 2.5-4.3v-11a1.8 1.8 0 0 0-1.9-2 1.8 1.8 0 0 0-.9.3l-9.6 5.6a4.9 4.9 0 0 0-2.4 4.3Z" data-name="Path 4732" style="fill-rule:evenodd;fill:#fff"/></g></g></svg>
