<svg xmlns="http://www.w3.org/2000/svg" xmlns:xlink="http://www.w3.org/1999/xlink" viewBox="0 0 100 125" version="1.1" x="0px" y="0px"><title>Viaduct</title><desc>Created with Sketch.</desc><g stroke="none" stroke-width="1" fill="none" fill-rule="evenodd"><g fill="#000000"><path d="M95,45.5499992 L95,26 L5,26 L5,45.5499992 L5,73.0999985 L10,73.0999985 L10,46 L10.044843,46 C10.0151626,45.670638 10,45.3370897 10,45 C10,38.9248678 14.9248678,34 21,34 C27.0751322,34 32,38.9248678 32,45 C32,45.3370897 31.9848374,45.670638 31.955157,46 L32,46 L32,73.0999985 L39,73.0999985 L39,45.9999874 C39,39.9248678 43.9248678,35 50,35 C56.0751322,35 61,39.9248678 61,46 L61,73.0999985 L68,73.0999985 L68,46 C68,39.9248678 72.9248678,35 79,35 C85.0751322,35 90,39.9248678 90,46 L90,73.0999985 L95,73.0999985 L95,45.5499992 Z"/></g></g><text x="0" y="115" fill="#000000" font-size="5px" font-weight="bold" font-family="'Helvetica Neue', Helvetica, Arial-Unicode, Arial, Sans-serif">Created by Joel Wisneski</text><text x="0" y="120" fill="#000000" font-size="5px" font-weight="bold" font-family="'Helvetica Neue', Helvetica, Arial-Unicode, Arial, Sans-serif">from the Noun Project</text></svg>
